<?xml version="1.0" encoding="UTF-8"?>
<svg version="1.1" viewBox="0 0 2048 655" width="500" height="160" xmlns="http://www.w3.org/2000/svg">
<path transform="translate(153,211)" d="m0 0h1v377l-25 4-53 6-40 5h-4l-1-3v-317l5-5 18-10 17-10 21-12 19-11 28-16z" fill="#0A3C60"/>
<path transform="translate(413,226)" d="m0 0 5 2 23 12 17 10 15 9 21 12 24 14 17 10 1 1v307l-24-2-57-7-28-3-13-2-1-1z" fill="#093B5F"/>
<path transform="translate(279,24)" d="m0 0h3v589l-1 20-18 1h-25l-3-1-1-384-24-14-21-12-24-14-6-4v-108l3-5 17-10 24-14 27-15 34-20z" fill="#0C3D61"/>
<path transform="translate(1094,17)" d="m0 0h12l22 2 19 5 19 9 13 9 12 11 9 10 10 15 7 16 7 22 2 21v15l-2 18-8 25-8 16-10 15-15 15-14 10-15 8-19 6-28 4h-19l-27-4-17-6-17-9-9-7-10-9-8-8-9-13-9-17-5-15-3-13-1-8v-33l3-19 6-18 12-22 13-15 5-5 12-10 14-8 13-6 19-5 7-1zm-6 50-15 3-17 9-12 11-10 15-5 12-2 10-1 10v13l2 15 5 14 6 10 9 11 11 8 10 6 16 4 7 1h15l19-4 15-8 10-8 9-11 9-19 2-6 1-7v-26l-2-10-7-16-6-10-9-10-8-6-16-8-7-2-8-1z" fill="#093B5F"/>
<path transform="translate(1163,391)" d="m0 0h12l10 10 7 8 13 15 11 13 13 15 9 11 13 15 12 14 11 12 9 11 13 15 2 2 1-134 2-1 47 1 1 4-1 244h-13l-15-16-11-13-12-13-7-8-11-12-7-8-12-13-7-8-12-13-9-11-15-16-5-5v130l-1 1h-48l-1-7v-206z" fill="#0C3D61"/>
<path transform="translate(1851,397)" d="m0 0h105l14 2 13 5 13 9 10 12 7 12 5 17 1 20-2 18-5 13-5 9-9 11-8 7-15 7-3 1 2 5 6 9 9 17 10 17 9 17 9 16 10 17v3h-55l-12-23-12-22-13-25-9-17-3-6-23-1v93l-2 1h-47l-1-3v-240zm49 48-1 19v36l1 1h23l23-1 8-3 8-6 4-6 1-4v-17l-5-10-8-7-6-2z" fill="#0A3B60"/>
<path transform="translate(726,21)" d="m0 0 49 1v97h73v-97l1-1 47 1v243h-48v-98h-73v98h-50v-243z" fill="#0B3C60"/>
<path transform="translate(1650,397)" d="m0 0h121v48h-73v49h64v48l-1 1h-63v49h76l1 1v48h-125l-1-9v-200z" fill="#0C3D61"/>
<path transform="translate(961,397)" d="m0 0h122l1 24v17l-1 7h-74l1 18v12l-1 19h65v48l-1 1h-64l1 14v18l-1 17h76l2 1v47l-1 1h-125z" fill="#0C3D61"/>
<path transform="translate(1357,19)" d="m0 0h23l24 4 15 5 2 1v10l-3 28-2 10-16-6-14-3-10-1h-12l-11 3-8 9-2 7v10l3 8 8 7 10 5 20 8 19 10 13 10 10 9 7 11 6 13 2 10v15l-2 11-8 19-7 9-7 8-10 7-14 7-13 3-8 1h-29l-19-3-21-7-11-5-3-1v-10l5-35 1-6 7 3 22 10 19 4 8 1h15l12-4 8-7 2-5 1-9-2-9-4-6-17-9-21-8-17-9-10-7-10-9-8-11-5-12-3-13v-14l4-17 5-13 7-10 11-12 13-8 10-4z" fill="#093B5F"/>
<path transform="translate(824,393)" d="m0 0h28l23 5 10 3 2 2-1 16-3 33-6-1-14-5-12-2h-24l-15 3-12 6-10 8-9 10-8 15-6 21v20l5 19 8 16 9 11 10 7 13 7 19 4h17l25-5 11-5h3l3 25 2 18v8l-16 5-19 4-12 1h-17l-18-2-27-9-13-7-14-10-13-13-10-14-9-17-5-15-4-20-1-9v-17l3-20 4-16 7-16 11-18 11-12 7-7 14-10 14-7 15-5 18-4z" fill="#093A5F"/>
<path transform="translate(1413,398)" d="m0 0h171v45l-2 2h-60v196h-49v-196h-60z" fill="#0D3D61"/>
<path transform="translate(1491,22)" d="m0 0h169l1 1v46h-61v195l-1 1h-47l-1-29v-148l1-19h-62v-46z" fill="#114164"/>
<path transform="translate(363,68)" d="m0 0 6 2 14 8 1 1v537l13 1 58 6 41 5 47 4v2h-179l-1-1-1-432v-132z" fill="#1E4B6C"/>
<path transform="translate(311,38)" d="m0 0 6 2 14 8 2 2v583h-21l-1-3z" fill="#154467"/>
<path transform="translate(184,255)" d="m0 0 4 1 17 9 1 2v366l-29 1h-156l3-2 48-4 70-8 33-3 9-2z" fill="#194769"/>
<path transform="translate(626,19)" d="m0 0h8l5 1v616h-13l-1-39v-490z" fill="#265172"/>
</svg>
